<svg xmlns="http://www.w3.org/2000/svg" xmlns:xlink="http://www.w3.org/1999/xlink" width="1920" zoomAndPan="magnify" viewBox="0 0 1440 809.999993" height="1080" preserveAspectRatio="xMidYMid meet" version="1.2"><defs><clipPath id="dfbacac376"><path d="M 410.296875 168 L 1004.78125 168 L 1004.78125 469 L 410.296875 469 Z M 410.296875 168 "/></clipPath></defs><g id="731a981f5c"><rect x="0" width="1440" y="0" height="809.999993" style="fill:#ffffff;fill-opacity:1;stroke:none;"/><path style=" stroke:none;fill-rule:nonzero;fill:#17265c;fill-opacity:1;" d="M 399.667969 560.433594 C 399.667969 545.34375 402.820312 531.871094 409.136719 520.003906 C 415.488281 508.152344 424.476562 498.917969 436.113281 492.316406 C 447.734375 485.679688 461.113281 482.351562 476.257812 482.351562 C 495.421875 482.351562 511.527344 487.476562 524.589844 497.726562 C 537.683594 507.976562 546.121094 521.90625 549.929688 539.507812 L 503.945312 539.507812 C 501.136719 533.722656 497.292969 529.3125 492.414062 526.269531 C 487.574219 523.1875 481.953125 521.640625 475.546875 521.640625 C 465.671875 521.640625 457.789062 525.183594 451.914062 532.246094 C 446.023438 539.277344 443.089844 548.671875 443.089844 560.433594 C 443.089844 572.390625 446.023438 581.910156 451.914062 588.976562 C 457.789062 596.003906 465.671875 599.511719 475.546875 599.511719 C 481.953125 599.511719 487.574219 598 492.414062 594.957031 C 497.292969 591.875 501.136719 587.445312 503.945312 581.644531 L 549.929688 581.644531 C 546.121094 599.207031 537.683594 613.105469 524.589844 623.355469 C 511.527344 633.605469 495.421875 638.730469 476.257812 638.730469 C 461.113281 638.730469 447.734375 635.4375 436.113281 628.835938 C 424.476562 622.199219 415.488281 612.964844 409.136719 601.148438 C 402.820312 589.296875 399.667969 575.71875 399.667969 560.433594 Z M 399.667969 560.433594 "/><path style=" stroke:none;fill-rule:nonzero;fill:#17265c;fill-opacity:1;" d="M 599.019531 483.917969 L 599.019531 573.101562 C 599.019531 581.414062 600.941406 587.820312 604.785156 592.320312 C 608.628906 596.839844 614.484375 599.082031 622.367188 599.082031 C 630.199219 599.082031 636.105469 596.804688 640.089844 592.25 C 644.113281 587.660156 646.140625 581.269531 646.140625 573.101562 L 646.140625 483.917969 L 688.847656 483.917969 L 688.847656 573.101562 C 688.847656 587.195312 685.859375 599.226562 679.878906 609.191406 C 673.9375 619.15625 665.859375 626.664062 655.609375 631.683594 C 645.359375 636.664062 633.96875 639.15625 621.441406 639.15625 C 608.949219 639.15625 597.8125 636.664062 587.988281 631.683594 C 578.164062 626.664062 570.441406 619.210938 564.855469 609.332031 C 559.25 599.421875 556.457031 587.339844 556.457031 573.101562 L 556.457031 483.917969 Z M 599.019531 483.917969 "/><path style=" stroke:none;fill-rule:nonzero;fill:#17265c;fill-opacity:1;" d="M 777.164062 637.664062 L 746.628906 580.933594 L 742.074219 580.933594 L 742.074219 637.664062 L 699.367188 637.664062 L 699.367188 483.917969 L 766.703125 483.917969 C 779.085938 483.917969 789.550781 486.085938 798.089844 490.394531 C 806.667969 494.664062 813.144531 500.554688 817.523438 508.046875 C 821.882812 515.5 824.070312 523.882812 824.070312 533.171875 C 824.070312 543.671875 821.1875 552.871094 815.457031 560.789062 C 809.710938 568.726562 801.3125 574.347656 790.261719 577.660156 L 824.925781 637.664062 Z M 742.074219 551.75 L 763.214844 551.75 C 769.050781 551.75 773.410156 550.378906 776.308594 547.621094 C 779.191406 544.828125 780.652344 540.824219 780.652344 535.59375 C 780.652344 530.664062 779.15625 526.765625 776.167969 523.917969 C 773.214844 521.070312 768.90625 519.648438 763.214844 519.648438 L 742.074219 519.648438 Z M 742.074219 551.75 "/><path style=" stroke:none;fill-rule:nonzero;fill:#17265c;fill-opacity:1;" d="M 830.441406 483.917969 L 873.148438 483.917969 L 873.148438 637.664062 L 830.441406 637.664062 Z M 830.441406 483.917969 "/><path style=" stroke:none;fill-rule:nonzero;fill:#17265c;fill-opacity:1;" d="M 958.199219 639.15625 C 943.820312 639.15625 930.582031 635.792969 918.480469 629.050781 C 906.414062 622.269531 896.859375 612.890625 889.792969 600.933594 C 882.765625 588.941406 879.261719 575.363281 879.261719 560.21875 C 879.261719 545.128906 882.765625 531.589844 889.792969 519.578125 C 896.859375 507.582031 906.414062 498.222656 918.480469 491.53125 C 930.582031 484.839844 943.820312 481.496094 958.199219 481.496094 C 972.753906 481.496094 986.027344 484.839844 997.988281 491.53125 C 1009.980469 498.222656 1019.480469 507.582031 1026.457031 519.578125 C 1033.433594 531.589844 1036.921875 545.128906 1036.921875 560.21875 C 1036.921875 575.363281 1033.433594 588.941406 1026.457031 600.933594 C 1019.480469 612.890625 1009.960938 622.269531 997.914062 629.050781 C 985.851562 635.792969 972.609375 639.15625 958.199219 639.15625 Z M 958.199219 599.511719 C 969.105469 599.511719 977.71875 595.953125 984.035156 588.832031 C 990.386719 581.714844 993.574219 572.179688 993.574219 560.21875 C 993.574219 548.03125 990.386719 538.421875 984.035156 531.390625 C 977.71875 524.328125 969.105469 520.785156 958.199219 520.785156 C 947.128906 520.785156 938.480469 524.328125 932.21875 531.390625 C 925.988281 538.421875 922.894531 548.03125 922.894531 560.21875 C 922.894531 572.320312 925.988281 581.910156 932.21875 588.976562 C 938.480469 596.003906 947.128906 599.511719 958.199219 599.511719 Z M 958.199219 599.511719 "/><g clip-rule="nonzero" clip-path="url(#dfbacac376)"><path style=" stroke:none;fill-rule:evenodd;fill:#ff914d;fill-opacity:1;" d="M 442.433594 343.886719 C 423.304688 355.527344 410.472656 378.695312 410.472656 402.648438 C 410.472656 439.089844 440.316406 468.933594 476.742188 468.933594 C 630.84375 468.933594 784.925781 468.933594 938.941406 468.933594 C 975.367188 468.933594 1005.207031 439.089844 1005.207031 402.648438 C 1005.207031 368.144531 978.425781 339.5625 944.597656 336.59375 C 946.238281 330.292969 946.378906 326.113281 946.378906 326.039062 C 947.304688 321.359375 947.800781 316.484375 947.800781 311.519531 C 947.800781 269.347656 913.65625 235.179688 871.464844 235.179688 C 864.023438 235.179688 856.871094 236.25 850.144531 238.222656 C 831.78125 196.90625 796.921875 168.273438 748.929688 168.273438 C 722.699219 168.273438 698.675781 177.703125 680.097656 193.292969 C 666.484375 186.136719 651.113281 181.40625 635.664062 181.40625 C 590.734375 181.40625 554.308594 217.832031 554.308594 262.761719 C 554.308594 264.472656 554.378906 266.160156 554.433594 267.796875 C 545.019531 263.972656 534.679688 261.855469 523.824219 261.855469 C 477.453125 261.820312 440.957031 298.175781 442.433594 343.886719 Z M 698.585938 390.316406 C 698.585938 373.605469 712.199219 359.992188 728.925781 359.992188 C 745.726562 359.992188 759.269531 373.605469 759.269531 390.316406 C 759.269531 401.3125 753.539062 410.886719 744.800781 416.1875 C 760.476562 448.503906 815.675781 450.921875 827.082031 451.066406 L 938.941406 451.066406 C 965.4375 451.066406 987.269531 429.230469 987.269531 402.664062 C 987.269531 377.414062 967.5 356.167969 942.339844 354.386719 L 937.945312 354.101562 C 931.429688 366.578125 919.882812 380.617188 899.382812 390.117188 L 899.382812 390.191406 C 899.382812 406.988281 885.839844 420.53125 869.042969 420.53125 C 852.316406 420.53125 838.703125 406.988281 838.703125 390.191406 C 838.703125 373.480469 852.316406 359.9375 869.042969 359.9375 C 877.621094 359.9375 885.359375 363.480469 890.878906 369.140625 C 952.605469 340.152344 937.089844 253.117188 871.445312 253.117188 C 866.410156 253.117188 861.390625 253.757812 856.480469 255.039062 C 860.820312 268.582031 862.15625 279.277344 861.660156 298.351562 C 870.875 303.582031 877.121094 313.441406 877.121094 324.792969 C 877.121094 341.503906 863.582031 355.117188 846.78125 355.117188 C 830.054688 355.117188 816.441406 341.59375 816.441406 324.792969 C 816.441406 310.113281 826.851562 297.925781 840.679688 295.078125 C 842.011719 262.621094 826.496094 231.585938 825.660156 229.949219 C 809.785156 203.148438 780.78125 186.210938 748.894531 186.210938 C 729.765625 186.210938 711.3125 192.222656 696.078125 203.507812 C 709.195312 213.417969 722.859375 228.382812 729.53125 249.933594 C 742.933594 253.046875 752.863281 265.09375 752.863281 279.417969 C 752.863281 296.144531 739.25 309.757812 722.523438 309.757812 C 705.792969 309.757812 692.183594 296.144531 692.183594 279.417969 C 692.183594 268.5625 697.859375 259.132812 706.363281 253.757812 C 692.464844 218.542969 658.800781 203.71875 657.519531 203.148438 C 650.578125 200.605469 643.140625 199.253906 635.613281 199.253906 C 600.539062 199.253906 572.191406 227.6875 572.191406 262.761719 C 572.191406 264.042969 572.191406 265.394531 572.261719 266.730469 L 572.546875 271.125 C 589.84375 279.132812 614.292969 298.921875 632.78125 337.820312 C 634.0625 337.679688 635.34375 337.605469 636.625 337.605469 C 653.425781 337.605469 666.964844 351.148438 666.964844 367.859375 C 666.964844 384.65625 653.425781 398.199219 636.625 398.199219 C 619.898438 398.199219 606.285156 384.65625 606.285156 367.859375 C 606.285156 360.347656 609.042969 353.480469 613.582031 348.230469 C 600.324219 314.847656 561.78125 279.683594 523.789062 279.683594 C 489.480469 279.683594 461.5625 306.910156 460.351562 341.003906 C 474.464844 341.363281 499.128906 347.449219 515.070312 361.558594 C 519.394531 359.226562 524.359375 357.875 529.589844 357.875 C 546.320312 357.875 559.929688 371.488281 559.929688 388.214844 C 559.929688 404.941406 546.320312 418.554688 529.589844 418.554688 C 512.882812 418.554688 499.25 404.941406 499.25 388.214844 C 499.25 385.386719 499.695312 382.628906 500.390625 379.992188 C 480.957031 364.761719 454.179688 353.976562 438.945312 372.894531 C 432.273438 381.113281 428.519531 391.683594 428.375 402.664062 C 427.949219 429.25 450.136719 451.066406 476.722656 451.066406 L 750.53125 451.066406 C 739.976562 443.914062 731.167969 434.054688 726.222656 420.511719 C 710.707031 419.160156 698.585938 406.1875 698.585938 390.316406 Z M 698.585938 390.316406 "/></g></g></svg>